**ABCDEFGHIJKLMNOPQRSTUVWXYZabcdefghijklmnopqrstuvwxyz**************************
**PARASOLID !"#$%&'()*+,-./:;<=>?@[\]^_`{|}~0123456789**************************
**PART1;
;
;
FRU=ASCON Modeller Kernel;
APPL=Kompas 3D;
FORMAT=text;
GUISE=transmit;
KEY=DIN-rail 35x7,5;
FILE=DIN-rail 35x7,5.x_t;
DATE=Fri Jun 18 15:40:11 2021;
**PART2;
SCH=SCH_2700008_26105;
USFLD_SIZE=0;
**PART3;
**END_OF_HEADER*****************************************************************
T51 : TRANSMIT FILE created by modeller version 130000017 SCH_2700008_261050 12
 1 675 2 3 0 0 0 0 1e3 1e-8 0 0 0 1 0 1 1 7 21 46 69 10 44 43 0 0 0 0 0 0 0 81 1
 2 1 5 1 0 0 0 0 6 70 3 0 4 T1 0 0 3 20 1 4 4 74 20 4 3 0 0 2 13 16 0 0 0 0 0 0
 0 0 0 0 0 0 0 0 0 0 0 80 1 5 0 8 8017 0 0 0 0 0 0 0 0 0 TTTTTTTTTTTTTF3 84 16 6
 DIN-рейка 35x7,513 7 2 0 1 0 12 0 0 11 0 79 13 8 SDL/TYSA_NAME13 9 3 0 0 0 0 0
 0 10 12 19 10 4 0 1 11 0 9 V0 19 11 5 0 1 0 10 7 S0 14 12 6 13 ?19 0 20 7 21 -0
 0 19 0 9 81 1 13 7 14 12 16 0 24 0 15 80 1 14 0 22 8001 0 0 0 0 3 5 0 0 0 FFFFT
FTFFFFFFF2 83 3 15 .847058823529412 .847058823529412 .847058823529412 81 1 16 8
 17 12 0 13 26 0 18 80 1 17 0 23 8015 0 0 0 0 3 5 0 0 0 FFFFTFFFFFFFFF2 83 1 18
 0 14 19 9 24 ?28 12 29 7 30 +0 0 28 12 9 15 20 12 0 31 12 32 50 21 13 0 12 30 0
 0 +0 0 0 0 0 1 -1 122464679914735e-30 0 79 15 22 SDL/TYSA_COLOUR79 21 23 SDL/TY
SA_TRANSLUCENCY81 1 24 10 14 19 26 0 33 13 25 83 3 25 .847058823529412 .84705882
3529412 .847058823529412 81 1 26 11 17 19 0 24 35 16 27 83 1 27 0 14 28 14 33 ?3
7 19 38 7 39 -0 0 37 19 9 15 29 17 0 40 19 41 50 30 18 0 19 45 21 0 +0 0 .001 0
 0 1 -1 122464679914735e-30 0 17 31 0 20 42 101 43 440 44 0 420 +15 32 22 0 47 1
2 48 81 1 33 15 14 28 35 0 49 24 34 83 3 34 .847058823529412 .847058823529412 .8
47058823529412 81 1 35 16 17 28 0 33 51 26 36 83 1 36 0 14 37 23 49 ?53 28 54 7
 55 -0 0 53 28 9 15 38 26 0 56 28 0 51 39 27 0 28 60 45 0 +-.019 995450157639315
e-32 0 0 0 1 .00315000000000001 467896209938253e-20 .999999999989054 0 17 40 0 2
9 57 137 58 563 59 0 504 +15 41 31 0 62 19 63 17 42 0 20 64 31 65 475 66 0 457 -
18 43 35 0 31 0 58 69 ?1 16 44 19 0 ?31 0 59 46 0 0 1 51 45 20 0 381 39 30 0 --.
1 -.0115 .002 -1 0 0 .002 0 0 -1 30 46 21 0 44 61 0 0 +-140834381901946e-32 -.01
15 0 -1 124344978758018e-30 0 17 47 0 32 70 159 71 425 72 0 408 +15 48 39 0 75 1
2 76 81 1 49 24 14 37 51 0 77 33 50 83 3 50 .847058823529412 .847058823529412 .8
47058823529412 81 1 51 25 17 37 0 49 79 35 52 83 1 52 0 14 53 40 77 ?81 37 82 7
 83 -0 0 81 37 9 15 54 43 0 84 37 0 50 55 44 0 37 92 73 0 +-.00729993497774738 .
00315000000006846 0 759123591931061e-31 1 0 -1 759123591931061e-31 0 17 56 0 38
 85 193 86 211 87 0 153 +17 57 0 29 89 40 90 504 91 0 490 +18 58 50 0 40 43 65 9
4 ?1 16 59 28 0 ?40 44 66 61 0 0 1 51 60 29 0 497 67 39 0 --140834381901946e-32
 -.0115 .002 1 0 0 .001 0 0 -1 30 61 30 0 59 68 46 0 +-.1 -.0115 .001 1 -1243449
78758018e-30 0 17 62 0 41 95 201 96 395 97 0 358 -15 63 53 0 99 19 100 17 64 0 2
0 101 42 102 470 103 0 452 +18 65 57 0 42 58 71 106 ?1 16 66 32 0 ?475 59 72 68
 0 0 1 50 67 33 0 393 73 60 0 +-.1 .0135 0 -1 0 0 0 -1 0 30 68 34 0 66 74 61 0 +
-.1 .0115 0 0 -1 0 29 69 58 0 43 94 0 -.1 -.0115 0 17 70 0 32 107 47 108 409 109
 0 396 +18 71 62 0 47 65 86 112 ?1 16 72 36 0 ?47 66 87 74 0 0 1 50 73 37 0 369
 55 67 0 +-.0690000207668318 -.00314999999993154 0 -759124159661897e-31 -1 0 1 -
759124159661897e-31 0 30 74 38 0 72 88 68 0 +-.0690000207668318 -.00314999999993
154 0 1 -379562079830949e-31 0 17 75 0 48 113 220 114 373 115 0 359 +15 76 66 0
 118 12 119 81 1 77 41 14 53 79 0 120 49 78 83 3 78 .847058823529412 .8470588235
29412 .847058823529412 81 1 79 42 17 53 0 77 122 51 80 83 1 80 0 14 81 67 120 ?1
24 53 125 7 126 -0 0 124 53 9 15 82 70 0 127 53 0 51 83 71 0 53 126 116 0 +-.007
3 106911665565564e-31 0 0 0 1 .00315000000000001 65925402916709e-19 -.9999999999
78269 0 17 84 0 54 128 249 129 263 130 0 193 +17 85 0 38 132 56 133 324 134 0 27
3 -18 86 77 0 56 71 90 136 ?1 16 87 45 0 ?56 72 91 88 0 0 1 31 88 46 0 87 93 74
 0 +-.019 995450157639315e-32 .001 0 0 1 46789620993213e-19 .999999999989054 0 .
00315000000000001 17 89 0 29 137 57 138 580 139 0 436 +18 90 81 0 57 86 96 142 ?
1 16 91 47 0 ?57 87 97 93 0 0 1 50 92 48 0 417 104 55 0 +-165327317884893e-32 -.
0135 0 1 -222777648957429e-29 0 222777648957429e-29 1 0 30 93 49 0 91 98 88 0 +2
80227980029966e-32 -.0115 .001 222777648957429e-29 1 0 29 94 82 0 58 106 69 2802
27980029966e-32 -.0115 .001 17 95 0 41 143 62 144 358 145 0 371 -18 96 86 0 62 9
0 102 148 ?1 16 97 51 0 ?395 91 103 98 0 0 1 30 98 52 0 97 105 93 0 +-.069000020
7668318 -.00314999999993154 .001 1 -379562079830949e-31 0 17 99 0 63 149 258 150
 341 151 0 242 -15 100 89 0 153 19 154 17 101 0 20 31 64 155 466 156 0 440 -18 1
02 92 0 64 96 108 158 ?1 16 103 54 0 ?64 97 109 105 0 0 1 51 104 55 0 405 110 92
 0 -575475907703177e-31 .0115 .002 1 0 0 .002 0 0 -1 30 105 56 0 103 111 98 0 +-
.1 .0115 0 1 -124344978758017e-30 0 29 106 93 0 65 112 94 -.1 .0115 0 17 107 0 3
2 159 70 160 397 161 0 384 +18 108 97 0 70 102 114 164 ?1 16 109 59 0 ?70 103 11
5 111 0 0 1 51 110 60 0 356 116 104 0 +-.0573 106911665565564e-31 0 0 0 1 .00315
000000000001 65925402916709e-19 -.999999999978269 0 31 111 61 0 109 117 105 0 +-
.0573 106911665565564e-31 0 0 0 1 659254029173213e-20 -.999999999978269 0 .00315
000000000001 29 112 98 0 71 136 106 -.0572999792334981 -.00314999999993154 0 17
 113 0 48 165 75 166 360 167 0 342 +18 114 102 0 75 108 129 170 ?1 16 115 63 0 ?
75 109 130 117 0 0 1 50 116 64 0 285 83 110 0 +-.0440000207668318 -.003149999999
93154 0 -759124159661897e-31 -1 0 1 -759124159661897e-31 0 30 117 65 0 115 131 1
11 0 +-.0440000207668318 -.00314999999993154 0 1 -759124159661897e-31 0 17 118 0
 76 171 273 172 289 173 0 243 +15 119 105 0 175 12 0 81 1 120 68 14 81 122 0 176
 77 121 83 3 121 .847058823529412 .847058823529412 .847058823529412 81 1 122 69
 17 81 0 120 178 79 123 83 1 123 0 14 124 106 176 ?180 81 181 7 182 -0 0 180 81
 9 15 125 109 0 183 81 0 50 126 75 0 81 140 83 0 +-.0190000207668318 -.003149999
99993154 0 -759124159661897e-31 -1 0 1 -759124159661897e-31 0 17 127 0 82 184 29
3 185 299 186 0 249 +17 128 0 54 188 84 189 193 190 0 132 -18 129 114 0 84 114 1
33 192 ?1 16 130 72 0 ?84 115 134 131 0 0 1 30 131 73 0 130 135 117 0 +-.0072999
3497774738 .00315000000006846 .001 -1 379561795965531e-31 0 17 132 0 38 193 85 1
89 273 194 0 226 -18 133 117 0 85 129 138 196 ?1 16 134 74 0 ?324 130 139 135 0
 0 1 30 135 76 0 134 141 131 0 +-.0190000207668318 -.00314999999993154 0 0 0 1 2
9 136 118 0 86 142 112 -.0190000207668318 -.00314999999993154 .001 17 137 0 29 4
0 89 197 436 198 0 419 +18 138 121 0 89 133 144 200 ?1 16 139 78 0 ?89 134 145 1
41 0 0 1 51 140 79 0 514 146 126 0 --.1 .0115 .002 -1 0 0 .001 0 0 -1 30 141 80
 0 139 147 135 0 +582517626798275e-31 .0115 .001 -1 124344978758017e-30 0 29 142
 122 0 90 148 136 540411390605084e-31 .0115 .001 17 143 0 41 201 95 202 371 203
 0 383 -18 144 125 0 95 138 150 205 ?1 16 145 83 0 ?358 139 151 147 0 0 1 51 146
 84 0 317 162 140 0 +-.069 995450157639315e-32 0 0 0 1 .00315000000000001 467896
209938253e-20 .999999999989054 0 31 147 85 0 145 152 141 0 +-.069 99545015763931
5e-32 .001 0 0 1 46789620993213e-19 .999999999989054 0 .00315000000000001 29 148
 126 0 96 158 142 -.0690000207668318 -.00314999999993154 .001 17 149 0 63 206 99
 207 242 208 0 287 -18 150 130 0 99 144 155 210 ?1 16 151 87 0 ?341 145 156 152
 0 0 1 30 152 88 0 151 157 147 0 +-.0440000207668318 -.00314999999993154 .001 1
 -759124159661897e-31 0 17 153 0 100 211 299 86 183 212 0 324 -15 154 133 0 214
 19 0 18 155 134 0 101 150 160 215 ?1 16 156 90 0 ?466 151 161 157 0 0 1 30 157
 91 0 156 163 152 0 +280227980029966e-32 -.0115 0 222777648957429e-29 1 0 29 158
 135 0 102 164 148 540411390605084e-31 .0115 0 17 159 0 32 47 107 216 385 217 0
 372 +18 160 138 0 107 155 166 219 ?1 16 161 94 0 ?107 156 167 163 0 0 1 50 162
 95 0 339 168 146 0 +-.0572999349777474 .00315000000006846 0 759123591931061e-31
 1 0 -1 759123591931061e-31 0 30 163 96 0 161 169 157 0 +-.0572999349777474 .003
15000000006846 0 -1 759123591931061e-31 0 29 164 139 0 108 170 158 -.05729993497
77474 .00315000000006846 0 17 165 0 48 220 113 221 343 222 0 320 +18 166 143 0 1
13 160 172 225 ?1 16 167 99 0 ?113 161 173 169 0 0 1 51 168 100 0 240 182 162 0
 +-.0323 106911665565564e-31 0 0 0 1 .00315000000000001 65925402916709e-19 -.999
999999978269 0 31 169 101 0 167 174 163 0 +-.0323 106911665565564e-31 0 0 0 1 65
9254029173213e-20 -.999999999978269 0 .00315000000000001 29 170 144 0 114 192 16
4 -.0322999792334981 -.00314999999993154 0 17 171 0 76 226 118 227 245 228 0 184
 +18 172 147 0 118 166 185 230 ?1 16 173 103 0 ?118 167 186 174 0 0 1 30 174 104
 0 173 187 169 0 +-.0190000207668318 -.00314999999993154 0 1 -759124159661897e-3
1 0 17 175 0 119 231 307 232 465 233 0 488 +81 1 176 107 14 124 178 0 236 120 17
7 83 3 177 .847058823529412 .847058823529412 .847058823529412 81 1 178 108 17 12
4 0 176 238 122 179 83 1 179 0 14 180 151 236 ?240 124 241 7 223 -0 0 240 124 9
 15 181 154 0 242 124 0 51 182 128 0 124 223 168 0 +-.044 995450157639315e-32 0
 0 0 1 .00315000000000001 467896209938253e-20 .999999999989054 0 17 183 0 125 24
3 324 244 153 212 0 293 +17 184 0 82 245 127 227 249 246 0 188 -18 185 157 0 127
 172 189 248 ?1 16 186 110 0 ?127 173 190 187 0 0 1 31 187 111 0 186 191 174 0 +
-.0073 106911665565564e-31 .001 0 0 1 659254029173213e-20 -.999999999978269 0 .0
0315000000000001 17 188 0 54 249 128 227 226 250 0 0 -18 189 160 0 128 185 197 2
52 ?1 16 190 112 0 ?193 186 194 191 0 0 1 30 191 113 0 190 195 187 0 +-.01899998
52612694 .00315000000006846 0 0 0 1 29 192 161 0 129 196 170 -.0189999852612694
 .00314999999996553 .001 17 193 0 38 56 132 129 128 190 0 211 +16 194 115 0 ?273
 190 198 195 0 0 1 31 195 116 0 194 199 191 0 +-.019 995450157639315e-32 0 0 0 1
 46789620993213e-19 .999999999989054 0 .00315000000000001 29 196 162 0 133 200 1
92 -.0190000207668318 -.00314999999993154 0 18 197 163 0 137 189 202 253 ?1 16 1
98 119 0 ?137 194 203 199 0 0 1 30 199 120 0 198 204 195 0 +-.1 .0115 .001 0 -1
 0 29 200 164 0 138 205 196 -.1 .0115 .001 17 201 0 41 62 143 254 383 255 0 395
 -18 202 167 0 143 197 207 257 ?1 16 203 123 0 ?371 198 208 204 0 0 1 30 204 124
 0 203 209 199 0 +-.0572999349777474 .00315000000006846 .001 -1 759123591931061e
-31 0 29 205 168 0 144 210 200 -.0689999852612694 .00314999999996553 .001 17 206
 0 63 258 149 259 287 260 0 319 -18 207 171 0 149 202 216 262 ?1 16 208 127 0 ?2
42 203 212 209 0 0 1 31 209 129 0 208 213 204 0 +-.044 995450157639315e-32 .001
 0 0 1 46789620993213e-19 .999999999989054 0 .00315000000000001 29 210 172 0 150
 215 205 -.0440000207668318 -.00314999999993154 .001 17 211 0 100 263 153 129 56
 87 0 0 -16 212 131 0 ?183 208 217 213 0 0 1 30 213 132 0 212 218 209 0 +-.01900
00207668318 -.00314999999993154 .001 1 -759124159661897e-31 0 17 214 0 154 264 3
26 265 501 266 0 489 -29 215 175 0 155 219 210 280227980029966e-32 -.0115 0 18 2
16 176 0 159 207 221 268 ?1 16 217 136 0 ?159 212 222 218 0 0 1 31 218 137 0 217
 224 213 0 +-.069 995450157639315e-32 0 0 0 1 46789620993213e-19 .99999999998905
4 0 .00315000000000001 29 219 177 0 160 225 215 -.0689999852612694 .003149999999
96553 0 17 220 0 48 75 165 269 321 270 0 288 +18 221 180 0 165 216 227 272 ?1 16
 222 140 0 ?165 217 228 224 0 0 1 50 223 141 0 180 234 182 0 +-.0322999349777474
 .00315000000006846 0 759123591931061e-31 1 0 -1 759123591931061e-31 0 30 224 14
2 0 222 229 218 0 +-.0322999349777474 .00315000000006846 0 -1 759123591931061e-3
1 0 29 225 181 0 166 230 219 -.0322999349777474 .00315000000006846 0 17 226 0 76
 273 171 189 188 250 0 0 +18 227 182 0 171 221 232 274 ?1 16 228 145 0 ?171 222
 233 229 0 0 1 31 229 146 0 228 235 224 0 +-.0073 106911665565564e-31 0 0 0 1 65
9254029173213e-20 -.999999999978269 0 .00315000000000001 29 230 183 0 172 248 22
5 -.00729997923349808 -.00314999999993154 0 17 231 0 119 275 175 276 488 277 0 4
99 +18 232 187 0 175 227 244 280 ?1 16 233 148 0 ?175 228 246 235 0 0 1 51 234 1
49 0 433 278 223 0 +-.094 995450157639315e-32 0 0 0 1 .00315000000000001 4678962
09938253e-20 .999999999989054 0 31 235 150 0 233 247 229 0 +-.094 99545015763931
5e-32 0 0 0 1 46789620993213e-19 .999999999989054 0 .00315000000000001 81 1 236
 152 14 180 238 0 281 176 237 83 3 237 .847058823529412 .847058823529412 .847058
823529412 81 1 238 153 17 180 0 236 283 178 239 83 1 239 0 14 240 188 281 ?285 1
80 286 7 168 -0 0 285 180 9 15 241 191 0 287 180 0 17 242 0 181 288 346 150 149
 208 0 388 +17 243 0 125 289 183 172 293 290 0 245 -18 244 194 0 183 232 254 292
 ?1 17 245 0 82 293 184 172 171 228 0 0 -16 246 155 0 ?249 233 250 247 0 0 1 30
 247 156 0 246 251 235 0 +-.00729993497774738 .00315000000006846 0 0 0 1 29 248
 195 0 185 252 230 -.00729993497774738 .00315000000006846 .001 17 249 0 54 84 18
8 185 184 246 0 263 +16 250 158 0 ?226 246 255 251 0 0 1 30 251 159 0 250 256 24
7 0 +-.00729993497774738 .00315000000006846 0 -1 379561795965531e-31 0 29 252 19
6 0 189 253 248 -.0189999852612694 .00314999999996553 0 29 253 197 0 197 257 252
 -.1 -.0115 .001 18 254 198 0 201 244 259 294 ?1 16 255 165 0 ?383 250 260 256 0
 0 1 31 256 166 0 255 261 251 0 +-.0573 106911665565564e-31 .001 0 0 1 659254029
173213e-20 -.999999999978269 0 .00315000000000001 29 257 199 0 202 262 253 -.057
2999349777474 .00315000000006846 .001 17 258 0 63 99 206 295 319 296 0 341 -18 2
59 202 0 206 254 265 298 ?1 16 260 169 0 ?287 255 266 261 0 0 1 30 261 170 0 260
 267 256 0 +-.0322999349777474 .00315000000006846 .001 -1 759123591931061e-31 0
 29 262 203 0 207 268 257 -.0439999852612694 .00314999999996553 .001 17 263 0 10
0 299 211 185 84 130 0 0 -17 264 0 154 300 214 301 547 302 0 530 -18 265 207 0 2
14 259 269 305 ?1 16 266 173 0 ?501 260 270 267 0 0 1 31 267 174 0 266 271 261 0
 +-.094 995450157639315e-32 .001 0 0 1 46789620993213e-19 .999999999989054 0 .00
315000000000001 29 268 208 0 216 272 262 -.0690000207668318 -.00314999999993154
 0 18 269 209 0 220 265 276 306 ?1 16 270 178 0 ?220 266 277 271 0 0 1 31 271 17
9 0 270 279 267 0 +-.044 995450157639315e-32 0 0 0 1 46789620993213e-19 .9999999
99989054 0 .00315000000000001 29 272 210 0 221 274 268 -.0439999852612694 .00314
999999996553 0 17 273 0 76 118 226 133 132 194 0 289 +29 274 211 0 227 280 272 -
.00729993497774738 .00315000000006846 0 17 275 0 119 307 231 308 499 309 0 516 +
18 276 215 0 231 269 295 312 ?1 16 277 184 0 ?231 270 290 279 0 0 1 50 278 185 0
 449 303 234 0 +-.0940000207668318 -.00314999999993154 0 -759124159661897e-31 -1
 0 1 -759124159661897e-31 0 30 279 186 0 277 291 271 0 +-.0940000207668318 -.003
14999999993154 0 1 -759124159661897e-31 0 29 280 216 0 232 292 274 -.09400002076
68318 -.00314999999993154 0 81 1 281 189 14 240 283 0 313 236 282 83 3 282 .8470
58823529412 .847058823529412 .847058823529412 81 1 283 190 17 240 0 281 315 238
 284 83 1 284 0 14 285 217 313 ?317 240 318 7 116 -0 0 317 240 9 15 286 220 0 31
9 240 0 17 287 0 241 320 363 207 206 260 0 346 +17 288 0 181 321 242 269 388 322
 0 373 -17 289 0 125 324 243 133 118 173 0 0 -16 290 192 0 ?293 277 296 291 0 0
 1 30 291 193 0 290 297 279 0 +-.00729997923349808 -.00314999999993154 0 0 0 1 2
9 292 223 0 244 294 280 -.00729997923349808 -.00314999999993154 .001 17 293 0 82
 127 245 244 243 290 0 299 +29 294 224 0 254 298 292 -.0572999792334981 -.003149
99999993154 .001 18 295 225 0 258 276 301 325 ?1 16 296 200 0 ?319 290 302 297 0
 0 1 31 297 201 0 296 304 291 0 +-.0323 106911665565564e-31 .001 0 0 1 659254029
173213e-20 -.999999999978269 0 .00315000000000001 29 298 226 0 259 305 294 -.032
2999349777474 .00315000000006846 .001 17 299 0 100 153 263 244 127 186 0 0 -17 3
00 0 154 326 264 327 531 328 0 517 -18 301 229 0 264 295 308 330 ?1 16 302 204 0
 ?547 296 309 304 0 0 1 50 303 205 0 486 310 278 0 +-.0822999349777474 .00315000
000006846 0 759123591931061e-31 1 0 -1 759123591931061e-31 0 30 304 206 0 302 31
1 297 0 +-.0822999349777474 .00315000000006846 .001 -1 379561795965531e-31 0 29
 305 230 0 265 306 298 -.0939999852612694 .00314999999996553 .001 29 306 231 0 2
69 312 305 -.0440000207668318 -.00314999999993154 0 17 307 0 119 175 275 331 516
 332 0 465 +18 308 234 0 275 301 327 334 ?1 16 309 212 0 ?275 302 322 311 0 0 1
 51 310 213 0 463 423 303 0 +-.0823 106911665565564e-31 0 0 0 1 .003150000000000
01 65925402916709e-19 -.999999999978269 0 31 311 214 0 309 323 304 0 +-.0823 106
911665565564e-31 0 0 0 1 659254029173213e-20 -.999999999978269 0 .00315000000000
001 29 312 235 0 276 325 306 -.0822999792334981 -.00314999999993154 0 81 1 313 2
18 14 285 315 0 335 281 314 83 3 314 .847058823529412 .847058823529412 .84705882
3529412 81 1 315 219 17 285 0 313 337 283 316 83 1 316 0 14 317 236 335 ?339 285
 340 7 146 -0 0 339 285 9 15 318 239 0 341 285 0 17 319 0 286 342 376 259 258 29
6 0 363 +17 320 0 241 343 287 221 346 344 0 321 -17 321 0 181 346 288 221 220 27
0 0 0 -16 322 221 0 ?388 309 328 323 0 0 1 30 323 222 0 322 329 311 0 +-.0440000
207668318 -.00314999999993154 0 0 0 1 17 324 0 125 183 289 86 85 134 0 0 +29 325
 242 0 295 330 312 -.0322999792334981 -.00314999999993154 .001 17 326 0 154 214
 300 347 518 348 0 500 -18 327 245 0 300 308 331 350 ?1 16 328 227 0 ?531 322 33
2 329 0 0 1 31 329 228 0 328 333 323 0 +-.0823 106911665565564e-31 .001 0 0 1 65
9254029173213e-20 -.999999999978269 0 .00315000000000001 29 330 246 0 301 334 32
5 -.0822999349777474 .00315000000006846 .001 18 331 247 0 307 327 347 351 ?1 16
 332 232 0 ?307 328 344 333 0 0 1 30 333 233 0 332 345 329 0 +-.0822999349777474
 .00315000000006846 0 -1 379561795965531e-31 0 29 334 248 0 308 350 330 -.082299
9349777474 .00315000000006846 0 81 1 335 237 14 317 337 0 352 313 336 83 3 336 .
847058823529412 .847058823529412 .847058823529412 81 1 337 238 17 317 0 335 354
 315 338 83 1 338 0 14 339 249 352 ?356 317 357 7 162 -0 0 356 317 9 15 340 252
 0 358 317 0 17 341 0 318 359 388 295 99 151 0 376 +17 342 0 286 360 319 166 363
 361 0 343 -17 343 0 241 363 320 166 165 222 0 0 -16 344 240 0 ?346 332 348 345
 0 0 1 30 345 241 0 344 349 333 0 +-.0439999852612694 .00315000000006846 0 0 0 1
 17 346 0 181 242 321 207 320 344 0 0 +18 347 255 0 326 331 421 364 ?1 16 348 24
3 0 ?518 344 361 349 0 0 1 30 349 244 0 348 362 345 0 +-.0940000207668318 -.0031
4999999993154 .001 1 -759124159661897e-31 0 29 350 256 0 327 351 334 -.082299979
2334981 -.00314999999993154 .001 29 351 257 0 331 364 350 -.0939999852612694 .00
314999999996553 0 81 1 352 250 14 339 354 0 365 335 353 83 3 353 .84705882352941
2 .847058823529412 .847058823529412 81 1 354 251 17 339 0 352 367 337 355 83 1 3
55 0 14 356 258 365 ?369 339 370 7 110 -0 0 369 339 9 15 357 261 0 371 339 0 17
 358 0 340 372 400 96 95 145 0 444 +17 359 0 318 373 341 114 376 374 0 360 -17 3
60 0 286 376 342 114 113 167 0 0 -16 361 253 0 ?363 348 374 362 0 0 1 30 362 254
 0 361 375 349 0 +-.0322999349777474 .00315000000006846 0 0 0 1 17 363 0 241 287
 343 259 342 361 0 0 +29 364 264 0 347 443 351 -.0940000207668318 -.003149999999
93154 .001 81 1 365 259 14 356 367 0 377 352 366 83 3 366 .847058823529412 .8470
58823529412 .847058823529412 81 1 367 260 17 356 0 365 379 354 368 83 1 368 0 14
 369 265 377 ?381 356 382 7 73 -0 0 381 356 9 15 370 268 0 383 356 0 17 371 0 35
7 384 412 144 143 203 0 400 +17 372 0 340 385 358 216 444 386 0 425 -17 373 0 31
8 388 359 269 75 115 0 0 -16 374 262 0 ?376 361 386 375 0 0 1 30 375 263 0 374 3
87 362 0 +-.0322999792334981 -.00314999999993154 0 0 0 1 17 376 0 286 319 360 29
5 359 374 0 0 +81 1 377 266 14 369 379 0 389 365 378 83 3 378 .847058823529412 .
847058823529412 .847058823529412 81 1 379 267 17 369 0 377 391 367 380 83 1 380
 0 14 381 271 389 ?393 369 394 7 45 -0 0 393 369 9 15 382 274 0 395 369 0 17 383
 0 370 396 428 202 201 255 0 412 +17 384 0 357 397 371 160 400 398 0 385 -17 385
 0 340 400 372 160 159 217 0 0 -16 386 269 0 ?444 374 398 387 0 0 1 30 387 270 0
 386 399 375 0 +-.0690000207668318 -.00314999999993154 0 0 0 1 17 388 0 318 341
 373 150 288 322 0 0 +81 1 389 272 14 381 391 0 401 377 390 83 3 390 .8470588235
29412 .847058823529412 .847058823529412 81 1 391 273 17 381 0 389 403 379 392 83
 1 392 0 14 393 277 401 ?405 381 406 7 67 +0 0 405 381 9 15 394 280 0 407 381 0
 17 395 0 382 408 444 254 62 97 0 428 +17 396 0 370 409 383 108 412 410 0 397 -1
7 397 0 357 412 384 108 107 161 0 0 -16 398 275 0 ?400 386 410 399 0 0 1 30 399
 276 0 398 411 387 0 +-.0689999852612694 .00315000000006846 0 0 0 1 17 400 0 340
 358 385 144 384 398 0 0 +81 1 401 278 14 393 403 0 413 389 402 83 3 402 .847058
823529412 .847058823529412 .847058823529412 81 1 403 279 17 393 0 401 415 391 40
4 83 1 404 0 14 405 283 413 ?417 393 418 7 104 -0 0 417 393 9 15 406 286 0 419 3
93 0 17 407 0 394 420 458 421 595 422 0 575 +17 408 0 382 425 395 71 428 426 0 4
09 -17 409 0 370 428 396 71 70 109 0 0 -16 410 281 0 ?412 398 422 411 0 0 1 30 4
11 282 0 410 424 399 0 +-.0572999349777474 .00315000000006846 0 0 0 1 17 412 0 3
57 371 397 202 396 410 0 0 +81 1 413 284 14 405 415 0 429 401 414 83 3 414 .8470
58823529412 .847058823529412 .847058823529412 81 1 415 285 17 405 0 413 431 403
 416 83 1 416 0 14 417 292 429 ?433 405 434 7 92 +0 0 433 405 9 15 418 295 0 435
 405 0 17 419 0 406 436 475 197 592 437 0 563 +17 420 0 394 440 407 43 610 441 0
 475 -18 421 301 0 407 347 453 443 ?1 16 422 287 0 ?407 410 426 424 0 0 1 50 423
 288 0 527 438 310 0 +0 -.0135 -.0116991148575129 0 1 612323399573677e-31 -1 0 0
 30 424 289 0 422 427 411 0 +0 -.0135 .002 -1 0 0 17 425 0 382 444 408 216 47 72
 0 0 -16 426 290 0 ?428 422 437 427 0 0 1 30 427 291 0 426 439 424 0 +-.05729997
92334981 -.00314999999993154 0 0 0 1 17 428 0 370 383 409 254 408 426 0 0 +81 1
 429 293 14 417 431 0 445 413 430 83 3 430 .847058823529412 .847058823529412 .84
7058823529412 81 1 431 294 17 417 0 429 447 415 432 83 1 432 0 14 433 302 445 ?4
49 417 450 7 234 -0 0 449 417 9 15 434 305 0 451 417 0 17 435 0 418 452 491 453
 661 454 0 640 +17 436 0 406 457 419 138 137 198 0 558 -16 437 296 0 ?419 426 44
1 439 0 0 1 50 438 297 0 539 455 423 0 +-.1 -.0125 .002 -1 0 0 0 727366154732462
e-30 -1 30 439 298 0 437 442 427 0 +-.1 -.0115 0 0 0 1 17 440 0 394 458 420 155
 31 44 0 451 -16 441 299 0 ?610 437 454 442 0 0 1 31 442 300 0 441 456 439 0 +-.
1 -.0115 .002 -1 0 0 0 888178419700125e-30 -1 .002 29 443 309 0 421 474 364 -.1
 -.0135 .002 17 444 0 382 395 425 96 372 386 0 0 +81 1 445 303 14 433 447 0 459
 429 446 83 3 446 .847058823529412 .847058823529412 .847058823529412 81 1 447 30
4 17 433 0 445 461 431 448 83 1 448 0 14 449 310 459 ?463 433 464 7 278 -0 0 463
 433 9 15 450 313 0 465 433 0 17 451 0 434 466 504 155 649 467 0 624 +17 452 0 4
18 470 435 102 679 471 0 466 -18 453 320 0 435 421 479 474 ?1 16 454 306 0 ?435
 441 467 456 0 0 1 50 455 307 0 589 468 438 0 +140420882589662e-32 .0135 -.01169
91148575129 0 -1 612323399573677e-31 -1 0 0 30 456 308 0 454 469 442 0 +-.1 .013
5 .002 1 0 0 17 457 0 406 475 436 65 666 476 0 470 +17 458 0 394 407 440 479 624
 480 0 595 -81 1 459 311 14 449 461 0 482 445 460 83 3 460 .847058823529412 .847
058823529412 .847058823529412 81 1 461 312 17 449 0 459 484 447 462 83 1 462 0 1
4 463 326 482 ?486 449 487 7 310 -0 0 486 449 9 15 464 329 0 488 449 0 17 465 0
 450 489 521 331 175 233 0 567 -17 466 0 434 490 451 102 101 156 0 660 +16 467 3
14 0 ?451 454 471 469 0 0 1 50 468 315 0 555 472 455 0 +-140834381901946e-32 -.0
115 .001 1 263241838059422e-32 140834381901946e-29 263241838059511e-32 -1 -63441
3156928661e-30 30 469 316 0 467 473 456 0 +280227980029966e-32 -.0115 .001 0 0 -
1 17 470 0 418 491 452 65 64 103 0 645 -16 471 317 0 ?679 467 476 473 0 0 1 50 4
72 318 0 606 477 468 0 +56843418860808e-30 .0125 .002 1 -140420882589664e-29 102
137397413383e-44 223023577344377e-60 -727366154732462e-30 -1 31 473 319 0 471 47
8 469 0 +554392100349114e-31 .0115 .002 1 -140420882589664e-29 102137397413383e-
44 -225814001780023e-45 -888178419700125e-30 -1 .002 29 474 330 0 453 492 443 58
2476276867046e-31 .0135 .002 17 475 0 406 419 457 43 42 66 0 592 +16 476 321 0 ?
457 471 480 478 0 0 1 50 477 322 0 572 545 472 0 +-.1 .0115 .001 -1 0 0 0 1 -634
413156928661e-30 30 478 323 0 476 481 473 0 +-.1 .0115 .001 0 0 -1 18 479 331 0
 458 453 507 492 ?1 16 480 324 0 ?624 476 502 481 0 0 1 31 481 325 0 480 503 478
 0 +-281668763803911e-32 -.0115 .00200000000000014 1 263241838059422e-32 1408343
81901946e-29 263241838059516e-32 -1 -666133814775094e-30 .002 81 1 482 327 14 46
3 484 0 493 459 483 83 3 483 .847058823529412 .847058823529412 .847058823529412
 81 1 484 328 17 463 0 482 495 461 485 83 1 485 0 14 486 332 493 ?497 463 498 7
 303 -0 0 497 463 9 15 487 335 0 499 463 0 17 488 0 464 500 534 232 231 277 0 52
1 -17 489 0 450 501 465 265 567 502 0 547 +17 490 0 434 504 466 90 660 505 0 580
 +17 491 0 418 435 470 507 645 508 0 623 -29 492 342 0 479 522 474 0 -.0135 .002
 81 1 493 333 14 486 495 0 510 482 494 83 3 494 .847058823529412 .84705882352941
2 .847058823529412 81 1 495 334 17 486 0 493 512 484 496 83 1 496 0 14 497 343 5
10 ?514 486 515 7 60 +0 0 514 486 9 15 498 346 0 516 486 0 17 499 0 487 517 550
 276 275 309 0 534 -17 500 0 464 518 488 347 521 519 0 501 +17 501 0 450 521 489
 347 214 266 0 0 +16 502 336 0 ?489 480 505 503 0 0 1 30 503 337 0 502 506 481 0
 +-.0939999852612694 .00315000000006846 0 0 0 1 17 504 0 434 451 490 58 57 91 0
 542 -16 505 338 0 ?490 502 508 506 0 0 1 30 506 339 0 505 509 503 0 +5404113906
05084e-31 .0115 0 0 0 1 18 507 349 0 491 479 543 522 ?1 16 508 340 0 ?645 505 51
9 509 0 0 1 31 509 341 0 508 520 506 0 +-.1 .0115 .002 -1 0 0 0 1 -6661338147750
94e-30 .002 81 1 510 344 14 497 512 0 523 493 511 83 3 511 .847058823529412 .847
058823529412 .847058823529412 81 1 512 345 17 497 0 510 525 495 513 83 1 513 0 1
4 514 350 523 ?527 497 528 7 140 +0 0 527 497 9 15 515 353 0 529 497 0 17 516 0
 498 530 567 308 307 332 0 550 -17 517 0 487 531 499 327 534 532 0 518 +17 518 0
 464 534 500 327 326 348 0 0 +16 519 347 0 ?500 508 532 520 0 0 1 30 520 348 0 5
19 533 509 0 +-.0940000207668318 -.00314999999993154 0 0 0 1 17 521 0 450 465 50
1 232 500 519 0 0 -29 522 356 0 507 566 492 -.1 .0135 .002 81 1 523 351 14 514 5
25 0 535 510 524 83 3 524 .847058823529412 .847058823529412 .847058823529412 81
 1 525 352 17 514 0 523 537 512 526 83 1 526 0 14 527 357 535 ?539 514 540 7 423
 -0 0 539 514 9 15 528 360 0 541 514 0 17 529 0 515 542 584 543 693 544 0 591 -1
7 530 0 498 547 516 301 550 548 0 531 +17 531 0 487 550 517 301 300 328 0 0 +16
 532 354 0 ?517 519 544 533 0 0 1 30 533 355 0 532 546 520 0 +-.0822999792334981
 -.00314999999993154 0 0 0 1 17 534 0 464 488 518 276 517 532 0 0 -81 1 535 358
 14 527 537 0 551 523 536 83 3 536 .847058823529412 .847058823529412 .8470588235
29412 81 1 537 359 17 527 0 535 553 525 538 83 1 538 0 14 539 366 551 ?555 527 5
56 7 438 +0 0 555 527 9 15 540 369 0 557 527 0 17 541 0 528 558 600 559 713 560
 0 608 -17 542 0 515 563 529 58 591 564 0 649 +18 543 375 0 529 507 559 566 ?1 1
6 544 361 0 ?693 532 548 546 0 0 1 50 545 362 0 620 561 477 0 +0 -.0125 -.011699
1148575129 0 1 612323399573677e-31 -1 0 0 30 546 363 0 544 549 533 0 +0 -.0125 .
002 -1 0 0 17 547 0 498 567 530 265 264 302 0 0 +16 548 364 0 ?530 544 560 549 0
 0 1 30 549 365 0 548 562 546 0 +-.0822999349777474 .00315000000006846 0 0 0 1 1
7 550 0 487 499 531 308 530 548 0 0 -81 1 551 367 14 539 553 0 568 535 552 83 3
 552 .847058823529412 .847058823529412 .847058823529412 81 1 553 368 17 539 0 55
1 570 537 554 83 1 554 0 14 555 376 568 ?572 539 573 7 468 +0 0 572 539 9 15 556
 379 0 574 539 0 17 557 0 540 575 611 576 733 577 0 708 +17 558 0 528 580 541 13
8 608 581 0 666 +18 559 385 0 541 543 576 583 ?1 16 560 370 0 ?713 548 564 562 0
 0 1 50 561 371 0 637 578 545 0 +140420882589662e-32 .0125 -.0116991148575129 0
 -1 612323399573677e-31 -1 0 0 30 562 372 0 560 565 549 0 +-.1 .0125 .002 1 0 0
 17 563 0 515 584 542 197 40 59 0 574 -16 564 373 0 ?542 560 577 565 0 0 1 31 56
5 374 0 564 579 562 0 +-281668763803891e-32 -.0115 .002 1 263241838059422e-32 14
0834381901946e-29 263241838059516e-32 -1 -666133814775094e-30 .001 29 566 386 0
 543 583 522 0 -.0125 .002 17 567 0 498 516 547 331 489 502 0 0 -81 1 568 377 14
 555 570 0 585 551 569 83 3 569 .847058823529412 .847058823529412 .8470588235294
12 81 1 570 378 17 555 0 568 587 553 571 83 1 571 0 14 572 387 585 ?589 555 590
 7 477 +0 0 589 555 9 15 573 390 0 591 555 0 17 574 0 556 592 628 197 584 593 0
 0 -17 575 0 540 595 557 421 769 596 0 610 -18 576 396 0 557 559 601 599 ?1 16 5
77 380 0 ?557 564 581 579 0 0 1 51 578 381 0 657 597 561 0 +-.1 -.0145 .0055 1 0
 0 .001 0 1 612323399573677e-31 30 579 382 0 577 582 565 0 +0 -.0135 .0055 -1 0
 0 17 580 0 528 600 558 90 89 139 0 639 -16 581 383 0 ?558 577 593 582 0 0 1 31
 582 384 0 581 594 579 0 +-.1 .0115 .002 -1 0 0 0 1 -666133814775094e-30 .001 29
 583 397 0 559 599 566 -.1 .0125 .002 17 584 0 515 529 563 601 574 593 0 628 +81
 1 585 388 14 572 587 0 602 568 586 83 3 586 .847058823529412 .847058823529412 .
847058823529412 81 1 587 389 17 572 0 585 604 570 588 83 1 588 0 14 589 398 602
 ?606 572 607 7 455 -0 0 606 572 9 15 590 401 0 608 572 0 17 591 0 573 609 649 5
43 542 564 0 674 -17 592 0 556 610 574 43 419 437 0 0 -16 593 391 0 ?584 581 596
 594 0 0 1 31 594 392 0 593 598 582 0 +-.1 -.0115 .002 -1 0 0 0 0 -1 .001 17 595
 0 540 611 575 479 407 422 0 609 -16 596 393 0 ?769 593 613 598 0 0 1 50 597 394
 0 671 626 578 0 +-.1 -.0135 .002 -1 -749879891330929e-47 122464679914735e-30 12
2464679914735e-30 -612323399573677e-31 1 30 598 395 0 596 614 594 0 +-.1 -.0135
 .002 0 0 1 29 599 402 0 576 615 583 -.1 -.0135 .0055 17 600 0 528 541 580 612 6
39 613 0 697 +18 601 405 0 584 576 612 615 ?1 81 1 602 399 14 589 604 0 616 585
 603 83 3 603 .847058823529412 .847058823529412 .847058823529412 81 1 604 400 17
 589 0 602 618 587 605 83 1 605 0 14 606 406 616 ?620 589 621 7 472 +0 0 620 589
 9 15 607 409 0 622 589 0 17 608 0 590 623 666 559 558 581 0 688 -17 609 0 573 6
24 591 479 768 625 0 747 -17 610 0 556 628 592 421 420 441 0 751 +17 611 0 540 5
57 595 629 747 630 0 727 -18 612 415 0 600 601 629 632 ?1 16 613 403 0 ?600 596
 625 614 0 0 1 31 614 404 0 613 627 598 0 +554392100349112e-31 .0114999999999999
 .002 1 -140420882589664e-29 102137397413383e-44 102137397413383e-44 -1434222349
01985e-59 -1 .001 29 615 416 0 601 632 599 -.1 -.0125 .002 81 1 616 407 14 606 6
18 0 633 602 617 83 3 617 .847058823529412 .847058823529412 .847058823529412 81
 1 618 408 17 606 0 616 635 604 619 83 1 619 0 14 620 417 633 ?637 606 638 7 545
 +0 0 637 606 9 15 621 420 0 639 606 0 17 622 0 607 640 680 641 800 642 0 781 +1
7 623 0 590 645 608 507 786 646 0 661 -17 624 0 573 649 609 155 458 480 0 0 +16
 625 410 0 ?768 613 630 627 0 0 1 50 626 411 0 685 643 597 0 +0 -.0135 .0075 1 0
 0 0 612323399573677e-31 -1 30 627 412 0 625 631 614 0 +0 -.0135 .002 0 1 0 17 6
28 0 556 574 610 601 751 650 0 693 +18 629 429 0 611 612 641 652 ?1 16 630 413 0
 ?747 625 642 631 0 0 1 30 631 414 0 630 644 627 0 +0 -.0135 .0055 0 0 -1 29 632
 430 0 612 652 615 582476276867046e-31 .0125 .002 81 1 633 418 14 620 635 0 653
 616 634 83 3 634 .847058823529412 .847058823529412 .847058823529412 81 1 635 41
9 17 620 0 633 655 618 636 83 1 636 0 14 637 431 653 ?657 620 658 7 561 +0 0 657
 620 9 15 638 434 0 659 620 0 17 639 0 621 660 697 90 600 613 0 0 -17 640 0 607
 661 622 453 835 662 0 679 -18 641 438 0 622 629 675 665 ?1 16 642 421 0 ?622 63
0 646 644 0 0 1 51 643 422 0 725 647 626 0 +575455232737563e-31 .0145 .0055 -1 0
 0 .001 0 -1 612323399573677e-31 30 644 423 0 642 648 631 0 +-.1 .0135 .0055 1 0
 0 17 645 0 590 666 623 65 491 508 0 0 +16 646 424 0 ?786 642 650 648 0 0 1 50 6
47 425 0 705 663 643 0 +-.1 .0135 .0075 -1 -749879891330929e-47 -122464679914735
e-30 122464679914735e-30 -612323399573677e-31 -1 30 648 426 0 646 651 644 0 +-.1
 .0135 .002 0 -1 0 17 649 0 573 591 624 58 451 467 0 0 -16 650 427 0 ?628 646 66
2 651 0 0 1 30 651 428 0 650 664 648 0 +-.1 -.0135 .002 0 1 -444089209850069e-30
 29 652 439 0 629 665 632 0 -.0135 .0055 81 1 653 432 14 637 655 0 667 633 654 8
3 3 654 .847058823529412 .847058823529412 .847058823529412 81 1 655 433 17 637 0
 653 669 635 656 83 1 656 0 14 657 440 667 ?671 637 672 7 578 -0 0 671 637 9 15
 658 443 0 673 637 0 17 659 0 638 674 717 675 831 676 0 787 +17 660 0 621 679 63
9 102 490 505 0 0 -17 661 0 607 680 640 507 435 454 0 764 -16 662 435 0 ?835 650
 676 664 0 0 1 50 663 436 0 744 677 647 0 +582476276867046e-31 .0135 .002 1 6842
27765783602e-62 123259516440783e-45 -123259516440783e-45 612323399573677e-31 1 3
0 664 437 0 662 678 651 0 +582476276867046e-31 .0135 .002 0 0 1 29 665 447 0 641
 696 652 582476276867046e-31 .0135 .0055 17 666 0 590 608 645 138 457 476 0 0 -8
1 1 667 441 14 657 669 0 681 653 668 83 3 668 .847058823529412 .847058823529412
 .847058823529412 81 1 669 442 17 657 0 667 683 655 670 83 1 670 0 14 671 448 68
1 ?685 657 686 7 597 +0 0 685 657 9 15 672 451 0 687 657 0 17 673 0 658 688 737
 689 847 690 0 804 +17 674 0 638 693 659 543 787 694 0 768 +18 675 457 0 659 641
 689 696 ?1 16 676 444 0 ?659 662 690 678 0 0 1 51 677 445 0 761 691 663 0 +0 -.
0145 .0055 -1 0 0 .002 0 1 612323399573677e-31 30 678 446 0 676 692 664 0 +-.1 -
.0125 .0055 1 0 0 17 679 0 621 697 660 453 452 471 0 817 +17 680 0 607 622 661 6
98 764 699 0 746 -81 1 681 449 14 671 683 0 701 667 682 83 3 682 .84705882352941
2 .847058823529412 .847058823529412 81 1 683 450 17 671 0 681 703 669 684 83 1 6
84 0 14 685 460 701 ?705 671 706 7 626 +0 0 705 671 9 15 686 463 0 707 671 0 17
 687 0 672 708 753 709 825 710 0 878 +17 688 0 658 713 673 559 804 714 0 786 +18
 689 469 0 673 675 698 716 ?1 16 690 452 0 ?673 676 694 692 0 0 1 51 691 453 0 7
78 711 677 0 +-.1 .0145 .0055 1 0 0 .002 0 -1 612323399573677e-31 30 692 454 0 6
90 695 678 0 +582476276867046e-31 .0125 .0055 -1 0 0 17 693 0 638 717 674 601 52
9 544 0 728 +16 694 455 0 ?674 690 699 695 0 0 1 30 695 456 0 694 700 692 0 +0 -
.0125 .0055 0 0 -1 29 696 470 0 675 716 665 0 -.0125 .0055 17 697 0 621 639 679
 612 817 718 0 713 +18 698 473 0 680 689 709 720 ?1 16 699 458 0 ?764 694 710 70
0 0 0 1 30 700 459 0 699 712 695 0 +-.1 .0135 .0055 0 0 -1 81 1 701 461 14 685 7
03 0 721 681 702 83 3 702 .847058823529412 .847058823529412 .847058823529412 81
 1 703 462 17 685 0 701 723 683 704 83 1 704 0 14 705 474 721 ?725 685 726 7 647
 +0 0 725 685 9 15 706 477 0 727 685 0 17 707 0 686 728 769 729 860 730 0 717 +1
7 708 0 672 733 687 576 878 734 0 769 -18 709 483 0 687 698 729 736 ?1 16 710 46
4 0 ?687 699 714 712 0 0 1 50 711 465 0 793 731 691 0 +0 .00489822971502572 .006
49999999999998 0 133226762955019e-29 1 -1 0 0 30 712 466 0 710 715 700 0 +0 -.01
45 .0065 -1 0 0 17 713 0 658 737 688 612 541 560 0 796 +16 714 467 0 ?688 710 71
8 715 0 0 1 30 715 468 0 714 719 712 0 +-.1 .0125 .0055 0 0 -1 29 716 484 0 689
 720 696 -.1 .0125 .0055 17 717 0 638 659 693 729 728 738 0 831 +16 718 471 0 ?6
97 714 730 719 0 0 1 30 719 472 0 718 732 715 0 +582476276867046e-31 .0135 .002
 -140420882589664e-29 -1 -444089209850069e-30 29 720 487 0 698 736 716 -.1 .0135
 .0055 81 1 721 475 14 705 723 0 740 701 722 83 3 722 .847058823529412 .84705882
3529412 .847058823529412 81 1 723 476 17 705 0 721 742 703 724 83 1 724 0 14 725
 488 740 ?744 705 745 7 643 -0 0 744 705 9 15 726 491 0 746 705 0 17 727 0 706 7
47 787 629 918 748 0 733 +17 728 0 686 751 707 601 717 738 0 0 -18 729 495 0 707
 709 754 752 ?1 16 730 478 0 ?707 718 734 732 0 0 1 50 731 479 0 809 749 711 0 +
-.1 -.0145 .0075 -1 0 0 0 1 -133226762955019e-29 30 732 480 0 730 735 719 0 +-.1
 -.0135 .0055 0 1 0 17 733 0 672 753 708 629 557 577 0 897 -16 734 481 0 ?878 73
0 738 735 0 0 1 31 735 482 0 734 739 732 0 +-.1 -.0145 .0055 1 0 0 0 1 -17763568
3940025e-29 .001 29 736 496 0 709 752 720 -.1 -.0145 .0065 17 737 0 658 673 713
 754 796 755 0 780 +16 738 485 0 ?717 734 748 739 0 0 1 30 739 486 0 738 750 735
 0 +-.1 -.0125 .002 0 0 1 81 1 740 489 14 725 742 0 757 721 741 83 3 741 .847058
823529412 .847058823529412 .847058823529412 81 1 742 490 17 725 0 740 759 723 74
3 83 1 743 0 14 744 499 757 ?761 725 762 7 663 +0 0 761 725 9 15 745 502 0 763 7
25 0 17 746 0 726 764 804 698 933 765 0 800 +17 747 0 706 768 727 479 611 630 0
 0 +16 748 492 0 ?727 738 755 750 0 0 1 50 749 493 0 823 766 731 0 +0 -.0125 .00
55 1 0 0 0 -612323399573677e-31 1 30 750 494 0 748 756 739 0 +0 -.0125 .0055 0 -
1 0 17 751 0 686 769 728 421 628 650 0 0 -29 752 506 0 729 773 736 -.1 -.0125 .0
055 17 753 0 672 687 733 770 897 771 0 825 -18 754 509 0 737 729 770 773 ?1 16 7
55 497 0 ?737 748 765 756 0 0 1 30 756 498 0 755 767 750 0 +582476276867046e-31
 .0125 .002 0 0 1 81 1 757 500 14 744 759 0 774 740 758 83 3 758 .84705882352941
2 .847058823529412 .847058823529412 81 1 759 501 17 744 0 757 776 742 760 83 1 7
60 0 14 761 510 774 ?778 744 779 7 677 +0 0 778 744 9 15 762 513 0 780 744 0 17
 763 0 745 781 818 782 895 783 0 942 +17 764 0 726 786 746 507 680 699 0 0 +16 7
65 503 0 ?746 755 771 767 0 0 1 50 766 504 0 843 784 749 0 +-.1 .0125 .0055 -1 0
 0 0 612323399573677e-31 1 30 767 505 0 765 772 756 0 +-.1 .0125 .0055 0 1 0 17
 768 0 706 787 747 543 609 625 0 0 +17 769 0 686 707 751 576 575 596 0 860 +18 7
70 517 0 753 754 782 788 ?1 16 771 507 0 ?897 765 783 772 0 0 1 31 772 508 0 771
 785 767 0 +0 -.0145 .0055 -1 0 0 0 0 1 .001 29 773 518 0 754 788 752 5824762768
67046e-31 .0125 .0055 81 1 774 511 14 761 776 0 789 757 775 83 3 775 .8470588235
29412 .847058823529412 .847058823529412 81 1 776 512 17 761 0 774 791 759 777 83
 1 777 0 14 778 519 789 ?793 761 794 7 691 +0 0 793 761 9 15 779 522 0 795 761 0
 17 780 0 762 796 835 754 928 797 0 847 +17 781 0 745 800 763 641 942 801 0 835
 -18 782 528 0 763 770 813 803 ?1 16 783 514 0 ?763 771 797 785 0 0 1 50 784 515
 0 857 798 766 0 +140420882589662e-32 -.00489822971502571 .0065 0 0 1 -1 0 0 30
 785 516 0 783 799 772 0 +-.1 .0145 .0065 1 0 0 17 786 0 726 804 764 559 623 646
 0 0 +17 787 0 706 727 768 675 674 694 0 812 -29 788 529 0 770 803 773 0 -.0145
 .0065 81 1 789 520 14 778 791 0 805 774 790 83 3 790 .847058823529412 .84705882
3529412 .847058823529412 81 1 791 521 17 778 0 789 807 776 792 83 1 792 0 14 793
 530 805 ?809 778 810 7 711 -0 0 809 778 9 15 794 533 0 811 778 0 17 795 0 779 8
12 851 813 927 814 0 859 -17 796 0 762 817 780 612 737 755 0 0 -16 797 523 0 ?78
0 783 801 799 0 0 1 50 798 524 0 874 815 784 0 +56843418860808e-30 .0145 .0075 1
 -187078196387075e-44 140420882589662e-29 223023577344377e-60 -1 -13322676295501
9e-29 30 799 525 0 797 802 785 0 +582476276867046e-31 .0135 .0055 0 -1 0 17 800
 0 745 818 781 698 622 642 0 914 -16 801 526 0 ?942 797 814 802 0 0 1 31 802 527
 0 801 816 799 0 +596518365126013e-31 .0145 .0055 -1 187078196387075e-44 -140420
882589662e-29 623593987956916e-45 -1 -177635683940025e-29 .001 29 803 537 0 782
 834 788 582476276867046e-31 .0145 .0065 17 804 0 726 746 786 689 688 714 0 826
 -81 1 805 531 14 793 807 0 819 789 806 83 3 806 .847058823529412 .8470588235294
12 .847058823529412 81 1 807 532 17 793 0 805 821 791 808 83 1 808 0 14 809 538
 819 ?823 793 824 7 731 +0 0 823 793 9 15 810 541 0 825 793 0 17 811 0 794 826 8
68 827 940 828 0 876 -17 812 0 779 831 795 675 859 832 0 918 +18 813 547 0 795 7
82 827 834 ?1 16 814 534 0 ?927 801 828 816 0 0 1 50 815 535 0 893 829 798 0 +0
 .00489822971502572 .00749999999999998 0 133226762955019e-29 1 -1 0 0 30 816 536
 0 814 830 802 0 +0 -.0145 .0075 -1 0 0 17 817 0 762 835 796 453 697 718 0 0 -17
 818 0 745 763 800 836 914 837 0 895 -81 1 819 539 14 809 821 0 839 805 820 83 3
 820 .847058823529412 .847058823529412 .847058823529412 81 1 821 540 17 809 0 81
9 841 807 822 83 1 822 0 14 823 550 839 ?843 809 844 7 749 +0 0 843 809 9 15 824
 553 0 845 809 0 17 825 0 810 846 879 770 687 710 0 877 -17 826 0 794 847 811 68
9 876 848 0 933 +18 827 556 0 811 813 836 850 ?1 16 828 542 0 ?940 814 832 830 0
 0 1 50 829 543 0 910 866 815 0 +140420882589662e-32 -.00489822971502571 .0075 0
 0 1 -1 0 0 30 830 544 0 828 833 816 0 +-.1 .0145 .0075 1 0 0 17 831 0 779 851 8
12 729 659 676 0 845 -16 832 545 0 ?812 828 837 833 0 0 1 31 833 546 0 832 838 8
30 0 +0 -.0145 .0055 -1 0 0 0 0 1 .002 29 834 557 0 813 850 803 0 -.0145 .0075 1
7 835 0 762 780 817 641 640 662 0 928 +18 836 558 0 818 827 864 852 ?1 16 837 54
8 0 ?914 832 848 838 0 0 1 31 838 549 0 837 849 833 0 +-.1 .0145 .0055 1 0 0 0 0
 1 .001 81 1 839 551 14 823 841 0 853 819 840 83 3 840 .847058823529412 .8470588
23529412 .847058823529412 81 1 841 552 17 823 0 839 855 821 842 83 1 842 0 14 84
3 559 853 ?857 823 858 7 766 +0 0 857 823 9 15 844 562 0 859 823 0 17 845 0 824
 860 900 729 851 861 0 0 -17 846 0 810 863 825 864 955 865 0 972 -17 847 0 794 8
68 826 754 673 690 0 912 -16 848 554 0 ?826 837 861 849 0 0 1 31 849 555 0 848 8
62 838 0 +-.1 .0145 .0055 1 0 0 0 0 1 .002 29 850 568 0 827 852 834 -.1 .0145 .0
075 17 851 0 779 795 831 869 845 861 0 900 +29 852 569 0 836 884 850 -.1 .0145 .
0065 81 1 853 560 14 843 855 0 870 839 854 83 3 854 .847058823529412 .8470588235
29412 .847058823529412 81 1 855 561 17 843 0 853 872 841 856 83 1 856 0 14 857 5
70 870 ?874 843 875 7 784 -0 0 874 843 9 15 858 573 0 876 843 0 17 859 0 844 877
 918 813 812 832 0 973 -17 860 0 824 878 845 576 707 730 0 0 -16 861 563 0 ?851
 848 865 862 0 0 1 31 862 564 0 861 867 849 0 +-.1 -.0145 .0055 1 0 0 0 1 -13322
6762955019e-29 .002 17 863 0 810 879 846 880 972 881 0 991 -18 864 577 0 846 836
 869 884 ?1 16 865 565 0 ?955 861 881 867 0 0 1 50 866 566 0 925 882 829 0 +0 -.
0175 .0065 1 0 0 0 1 -139349996950756e-29 30 867 567 0 865 883 862 0 +0 -.0175 .
0065 0 1 -148029736616688e-29 17 868 0 794 811 847 885 912 886 0 940 +18 869 580
 0 851 864 880 888 ?1 81 1 870 571 14 857 872 0 889 853 871 83 3 871 .8470588235
29412 .847058823529412 .847058823529412 81 1 872 572 17 857 0 870 891 855 873 83
 1 873 0 14 874 581 889 ?893 857 894 7 798 +0 0 893 857 9 15 875 584 0 895 857 0
 17 876 0 858 896 933 827 826 848 0 994 -17 877 0 844 897 859 770 973 898 0 955
 -17 878 0 824 900 860 709 708 734 0 879 +17 879 0 810 825 863 709 991 901 0 103
1 -18 880 590 0 863 869 885 904 ?1 16 881 574 0 ?972 865 886 883 0 0 1 50 882 57
5 0 938 902 866 0 +-.1 -.0175 .0065 0 -1 139349996950756e-29 1 0 0 30 883 576 0
 881 887 867 0 +-.1 -.0175 .0065 1 0 0 29 884 591 0 864 888 852 0 -.0175 .0065 1
8 885 592 0 868 880 930 905 ?1 16 886 578 0 ?868 881 898 887 0 0 1 31 887 579 0
 886 899 883 0 +596518365126011e-31 .0145 .00550000000000014 -1 187078196387075e
-44 -140420882589662e-29 0 -1 -133226762955019e-29 .002 29 888 593 0 869 904 884
 -.1 -.0145 .0075 81 1 889 582 14 874 891 0 906 870 890 83 3 890 .84705882352941
2 .847058823529412 .847058823529412 81 1 891 583 17 874 0 889 908 872 892 83 1 8
92 0 14 893 594 906 ?910 874 911 7 815 +0 0 910 874 9 15 894 597 0 912 874 0 17
 895 0 875 913 943 836 763 783 0 896 -17 896 0 858 914 876 836 1023 915 0 1008 -
17 897 0 844 918 877 629 753 771 0 0 +16 898 585 0 ?973 886 901 899 0 0 1 30 899
 586 0 898 903 887 0 +0 -.0145 .0065 0 177635683940025e-29 1 17 900 0 824 845 87
8 869 1031 919 0 927 +16 901 587 0 ?991 898 915 903 0 0 1 50 902 588 0 953 916 8
82 0 +-.1 -.0145 .0065 -1 0 0 0 -1 139349996950756e-29 30 903 589 0 901 917 899
 0 +-.1 -.0145 .0065 0 -1 148029736616688e-29 29 904 603 0 880 905 888 -.1 -.017
5 .0065 29 905 604 0 885 948 904 582476276867046e-31 .0145 .0075 81 1 906 595 14
 893 908 0 921 889 907 83 3 907 .847058823529412 .847058823529412 .8470588235294
12 81 1 908 596 17 893 0 906 923 891 909 83 1 909 0 14 910 605 921 ?925 893 926
 7 829 +0 0 925 893 9 15 911 608 0 927 893 0 17 912 0 894 928 961 754 868 886 0
 0 -17 913 0 875 929 895 930 1008 931 0 1022 -17 914 0 858 933 896 698 818 837 0
 0 +16 915 598 0 ?1023 901 919 917 0 0 1 50 916 599 0 970 946 902 0 +-.1 .0175 .
0065 -1 0 0 0 -1 -612323399573677e-31 30 917 600 0 915 920 903 0 +-.1 .0145 .006
5 0 0 1 17 918 0 844 859 897 675 727 748 0 0 -16 919 601 0 ?900 915 931 920 0 0
 1 30 920 602 0 919 932 917 0 +-.1 -.0145 .0065 0 177635683940025e-29 1 81 1 921
 606 14 910 923 0 934 906 922 83 3 922 .847058823529412 .847058823529412 .847058
823529412 81 1 923 607 17 910 0 921 936 908 924 83 1 924 0 14 925 611 934 ?938 9
10 939 7 866 +0 0 938 910 9 15 926 614 0 940 910 0 17 927 0 911 941 978 869 795
 814 0 1024 +17 928 0 894 942 912 641 780 797 0 0 -17 929 0 875 943 913 944 1022
 945 0 1028 -18 930 618 0 913 885 944 948 ?1 16 931 609 0 ?1008 919 945 932 0 0
 1 30 932 610 0 931 947 920 0 +-.1 .0175 .0065 0 -1 0 17 933 0 858 876 914 689 7
46 765 0 0 -81 1 934 612 14 925 936 0 949 921 935 83 3 935 .847058823529412 .847
058823529412 .847058823529412 81 1 936 613 17 925 0 934 951 923 937 83 1 937 0 1
4 938 619 949 ?953 925 954 7 882 +0 0 953 925 9 15 939 622 0 955 925 0 17 940 0
 926 956 994 885 811 828 0 961 +17 941 0 911 957 927 958 1024 959 0 1009 +17 942
 0 894 961 928 782 781 801 0 943 +17 943 0 875 895 929 782 1028 962 0 1041 -18 9
44 628 0 929 930 958 965 ?1 16 945 615 0 ?1022 931 959 947 0 0 1 50 946 616 0 98
9 963 916 0 +582476276867046e-31 .0175 .0065 0 1 612323399573677e-31 -1 0 0 30 9
47 617 0 945 960 932 0 +582476276867046e-31 .0175 .0065 -1 0 0 29 948 629 0 930
 965 905 -.1 .0175 .0065 81 1 949 620 14 938 951 0 966 934 950 83 3 950 .8470588
23529412 .847058823529412 .847058823529412 81 1 951 621 17 938 0 949 968 936 952
 83 1 952 0 14 953 630 966 ?970 938 971 7 902 +0 0 970 938 9 15 954 633 0 972 93
8 0 17 955 0 939 973 1013 770 846 865 0 0 +17 956 0 926 974 940 975 1037 976 0 1
032 +17 957 0 911 978 941 979 1010 980 0 992 +18 958 638 0 941 944 975 982 ?1 16
 959 623 0 ?941 945 962 960 0 0 1 30 960 624 0 959 964 947 0 +-.1 -.0145 .0075 0
 -1 148029736616687e-29 17 961 0 894 912 942 885 1041 983 0 1037 +16 962 625 0 ?
1028 959 976 964 0 0 1 50 963 626 0 1006 0 946 0 +582476276867046e-31 .0145 .006
5 1 0 0 0 1 612323399573677e-31 30 964 627 0 962 977 960 0 +582476276867046e-31
 .0145 .0065 0 1 0 29 965 641 0 944 982 948 582476276867046e-31 .0175 .0065 81 1
 966 631 14 953 968 0 985 949 967 83 3 967 .847058823529412 .847058823529412 .84
7058823529412 81 1 968 632 17 953 0 966 987 951 969 83 1 969 0 14 970 642 985 ?9
89 953 990 7 916 +0 0 989 953 9 15 971 645 0 991 953 0 17 972 0 954 992 1027 864
 863 881 0 1013 +17 973 0 939 993 955 813 877 898 0 978 +17 974 0 926 994 956 99
5 1033 996 0 1029 +18 975 648 0 956 958 979 998 ?1 16 976 634 0 ?956 962 980 977
 0 0 1 30 977 635 0 976 981 964 0 +582476276867046e-31 .0145 .0075 0 1 0 17 978
 0 911 927 957 813 993 999 0 0 +18 979 651 0 957 975 995 1001 ?1 16 980 636 0 ?9
57 976 983 981 0 0 1 30 981 637 0 980 984 977 0 +-.1 -.0175 .0075 1 0 0 29 982 6
52 0 958 998 965 -.1 -.0175 .0075 16 983 639 0 ?961 980 996 984 0 0 1 30 984 640
 0 983 997 981 0 +582476276867046e-31 .0145 .0065 -140420882589662e-29 0 1 81 1
 985 643 14 970 987 0 1002 966 986 83 3 986 .847058823529412 .847058823529412 .8
47058823529412 81 1 987 644 17 970 0 985 1004 968 988 83 1 988 0 14 989 653 1002
 ?1006 970 1007 7 946 +0 0 1006 970 9 15 990 656 0 1008 970 0 17 991 0 971 1009
 1031 880 879 901 0 1027 +17 992 0 954 1010 972 979 1013 1011 0 993 +17 993 0 93
9 1013 973 979 978 999 0 0 -17 994 0 926 940 974 827 1030 1014 0 1023 +18 995 66
1 0 974 979 0 1016 ?1 16 996 646 0 ?974 983 999 997 0 0 1 30 997 647 0 996 1000
 984 0 +582476276867046e-31 .0175 .0075 -1 0 0 29 998 662 0 975 1001 982 5824762
76867046e-31 .0175 .0075 16 999 649 0 ?978 996 1011 1000 0 0 1 30 1000 650 0 999
 1012 997 0 +0 -.0175 .0075 0 1 -148029736616687e-29 29 1001 663 0 979 1016 998
 0 -.0175 .0075 81 1 1002 654 14 989 1004 0 1017 985 1003 83 3 1003 .84705882352
9412 .847058823529412 .847058823529412 81 1 1004 655 17 989 0 1002 1019 987 1005
 83 1 1005 0 14 1006 664 1017 ?0 989 1021 7 963 +0 0 0 989 9 15 1007 667 0 1022
 989 0 17 1008 0 990 1023 1036 836 913 931 0 0 +17 1009 0 971 1024 991 958 1027
 1025 0 1010 +17 1010 0 954 1027 992 958 957 980 0 0 -16 1011 657 0 ?992 999 101
4 1012 0 0 1 30 1012 658 0 1011 1015 1000 0 +0 -.0175 .0065 0 0 1 17 1013 0 939
 955 993 864 992 1011 0 0 -16 1014 659 0 ?994 1011 1025 1015 0 0 1 30 1015 660 0
 1014 1026 1012 0 +-.1 .0175 .0075 0 -1 0 29 1016 670 0 995 0 1001 -.1 .0175 .00
75 81 1 1017 665 14 1006 1019 0 0 1002 1018 83 3 1018 .847058823529412 .84705882
3529412 .847058823529412 81 1 1019 666 17 1006 0 1017 0 1004 1020 83 1 1020 0 15
 1021 671 0 1028 1006 0 17 1022 0 1007 1029 1040 930 929 945 0 1036 +17 1023 0 9
90 1030 1008 827 896 915 0 0 +17 1024 0 971 1031 1009 869 941 959 0 0 -16 1025 6
68 0 ?1009 1014 1034 1026 0 0 1 30 1026 669 0 1025 1035 1015 0 +-.1 -.0175 .0065
 0 0 1 17 1027 0 954 972 1010 880 1009 1025 0 0 -17 1028 0 1021 1032 1041 944 94
3 962 0 1040 +17 1029 0 1007 1033 1022 995 1036 1034 0 1030 +17 1030 0 990 1036
 1023 995 994 1014 0 0 -17 1031 0 971 991 1024 709 900 919 0 0 -17 1032 0 1021 1
037 1028 975 1040 1038 0 1033 +17 1033 0 1007 1040 1029 975 974 996 0 0 -16 1034
 672 0 ?1029 1025 1038 1035 0 0 1 30 1035 673 0 1034 1039 1026 0 +-.1 .0175 .006
5 0 0 1 17 1036 0 990 1008 1030 930 1029 1034 0 0 -17 1037 0 1021 1041 1032 885
 956 976 0 0 -16 1038 674 0 ?1032 1034 0 1039 0 0 1 30 1039 675 0 1038 0 1035 0
 +582476276867046e-31 .0175 .0065 0 0 1 17 1040 0 1007 1022 1033 944 1032 1038 0
 0 -17 1041 0 1021 1028 1037 782 961 983 0 0 -1 0 